<svg xmlns="http://www.w3.org/2000/svg" xmlns:xlink="http://www.w3.org/1999/xlink"
	 viewBox="0 0 787.19 46.09" >
<g>
	<g>
		<path style="fill:#000000;" d="M27.83,5.12c5.3,0,8.01,0.61,9.74,1.68c0.82,0.51,3.62,2.45,3.62,6.78c0,2.7-1.22,4.49-2.24,5.51
			c-1.78,1.78-4.18,2.5-4.64,2.6v0.21c1.73,0.3,4.23,1.22,5.81,2.5c1.58,1.28,3.01,3.37,3.01,6.63c0,3.16-1.43,5.81-3.47,7.34
			c-0.82,0.61-3.62,2.45-11.42,2.45H4.22V5.12H27.83z M17.48,18.89h6.58c0.97,0,2.24-0.2,2.91-0.66c0.61-0.41,1.07-1.22,1.07-2.24
			c0-1.07-0.46-1.84-1.02-2.19c-0.61-0.41-1.94-0.61-2.6-0.61h-6.94V18.89z M17.48,32.76h7.24c1.17,0,2.5-0.05,3.47-0.77
			c0.56-0.46,1.17-1.22,1.17-2.5c0-0.97-0.31-1.84-1.33-2.5c-0.46-0.25-1.38-0.71-3.47-0.71h-7.09V32.76z"/>
		<path style="fill:#000000;" d="M81.43,18.58v8.41H63.78v4.39h22.54v9.43h-35.8V5.12h35.29v9.43H63.78v4.03H81.43z"/>
		<path style="fill:#000000;" d="M113.05,5.12c4.84,0,11.78,0.61,16.37,5.05c3.01,2.96,4.9,7.65,4.9,12.8c0,5.71-2.09,10.2-4.9,12.9
			c-4.69,4.54-11.32,4.95-16.01,4.95H93.98V5.12H113.05z M107.23,31.23h3.57c1.73,0,4.64-0.1,6.58-1.73
			c1.79-1.48,2.65-4.18,2.65-6.63c0-2.7-0.92-5.3-2.4-6.58c-1.89-1.63-5-1.79-7.19-1.79h-3.21V31.23z"/>
		<path style="fill:#000000;" d="M151.6,29.03v0.2c0,1.02,0.2,2.29,1.43,3.21c1.27,0.97,3.47,1.12,4.28,1.12
			c1.22,0,2.75-0.05,3.93-0.61c1.28-0.61,1.73-1.53,1.73-2.55c0-1.63-1.17-2.19-2.14-2.5c-0.46-0.15-1.48-0.46-4.23-0.92l-3.82-0.66
			c-6.43-1.12-8.92-2.14-10.45-3.21c-2.75-1.99-3.31-4.69-3.31-6.83c0-4.28,1.99-7.09,5.1-9.08c3.98-2.55,8.82-3.01,12.85-3.01
			c7.85,0,11.47,1.78,12.95,2.7c4.33,2.65,4.9,6.22,4.79,8.87h-12.6v-0.15c0-0.82-0.2-1.84-1.43-2.55
			c-0.46-0.26-1.53-0.71-3.88-0.71c-1.68,0-2.7,0.26-3.37,0.61c-0.97,0.51-1.53,1.38-1.53,2.14c0,1.33,1.12,1.84,1.79,2.04
			c0.46,0.15,1.43,0.41,5.2,1.02l4.13,0.66c4.39,0.71,7.5,1.68,9.64,3.31c2.65,2.04,3.52,4.64,3.52,7.7c0,3.16-0.87,5.76-3.06,7.9
			c-3.82,3.77-10,4.18-15.71,4.18c-8.41,0-12.14-1.73-13.97-3.01c-2.14-1.53-4.79-4.54-4.79-9.64v-0.25H151.6z"/>
		<path style="fill:#000000;" d="M196.33,5.12v35.7h-13.26V5.12H196.33z"/>
		<path style="fill:#000000;" d="M225.09,5.12c4.84,0,11.78,0.61,16.37,5.05c3.01,2.96,4.9,7.65,4.9,12.8c0,5.71-2.09,10.2-4.9,12.9
			c-4.69,4.54-11.32,4.95-16.01,4.95h-19.43V5.12H225.09z M219.28,31.23h3.57c1.73,0,4.64-0.1,6.58-1.73
			c1.78-1.48,2.65-4.18,2.65-6.63c0-2.7-0.92-5.3-2.4-6.58c-1.89-1.63-5-1.79-7.19-1.79h-3.21V31.23z"/>
		<path style="fill:#000000;" d="M284.41,18.58v8.41h-17.64v4.39h22.54v9.43h-35.8V5.12h35.29v9.43h-22.03v4.03H284.41z"/>
		<path style="fill:#000000;" d="M331.33,5.12c4.03,0,9.28,0.46,12.75,3.93c1.63,1.63,3.31,4.44,3.31,8.97
			c0,4.13-1.38,7.09-3.06,8.98c-3.62,4.03-9.23,4.03-13.56,4.03h-7.65v9.79h-13.26V5.12H331.33z M323.12,21.95h5.86
			c1.27,0,2.96-0.21,3.93-1.02c0.76-0.61,1.22-1.68,1.22-2.91c0-1.53-0.87-2.24-1.07-2.4c-0.82-0.66-2.45-0.92-3.88-0.92h-6.07
			V21.95z"/>
		<path style="fill:#000000;" d="M354.02,5.12h23.51c2.91,0,7.45,0.3,10.4,2.5c1.78,1.33,3.72,3.77,3.72,8.01
			c0,2.14-0.46,4.28-2.29,6.12c-1.68,1.73-3.93,2.45-4.33,2.6v0.25c1.43,0.31,3.21,1.17,4.23,2.24c1.63,1.73,1.68,3.77,1.79,5.81
			l0.15,2.91c0.1,2.09,0.2,3.37,1.48,5.25h-13.51c-1.38-1.63-1.43-2.91-1.48-4.38l-0.1-2.14c-0.05-1.48-0.25-3.37-1.53-4.44
			c-0.41-0.36-1.48-1.07-4.64-1.07h-4.13v12.03h-13.26V5.12z M367.28,20.82h6.58c1.28,0,2.75-0.25,3.57-0.87
			c0.71-0.56,1.27-1.58,1.27-2.86c0-1.43-0.76-2.24-1.33-2.6c-0.82-0.56-2.35-0.71-3.62-0.71h-6.48V20.82z"/>
		<path style="fill:#000000;" d="M435.87,36.68c-3.62,3.11-9.33,5.1-16.42,5.1c-7.09,0-12.8-1.99-16.42-5.1
			c-2.4-2.04-5.86-6.27-5.86-13.72s3.47-11.68,5.86-13.72c3.62-3.11,9.33-5.1,16.42-5.1c7.09,0,12.8,1.99,16.42,5.1
			c2.4,2.04,5.86,6.27,5.86,13.72S438.27,34.64,435.87,36.68z M413.89,15.72c-1.58,1.58-2.45,4.23-2.45,7.24s0.87,5.66,2.45,7.24
			c1.22,1.17,3.26,2.09,5.56,2.09c2.29,0,4.33-0.92,5.56-2.09c1.58-1.58,2.45-4.23,2.45-7.24s-0.87-5.66-2.45-7.24
			c-1.22-1.17-3.26-2.09-5.56-2.09C417.16,13.63,415.12,14.55,413.89,15.72z"/>
		<path style="fill:#000000;" d="M468.21,5.12c4.84,0,11.78,0.61,16.37,5.05c3.01,2.96,4.9,7.65,4.9,12.8c0,5.71-2.09,10.2-4.9,12.9
			c-4.69,4.54-11.32,4.95-16.01,4.95h-19.43V5.12H468.21z M462.4,31.23h3.57c1.73,0,4.64-0.1,6.58-1.73
			c1.79-1.48,2.65-4.18,2.65-6.63c0-2.7-0.92-5.3-2.4-6.58c-1.89-1.63-5-1.79-7.19-1.79h-3.21V31.23z"/>
		<path style="fill:#000000;" d="M534.15,26.74c0,3.21-0.46,8.06-4.95,11.53c-3.67,2.86-9.18,3.52-14.43,3.52
			c-5.25,0-10.76-0.66-14.43-3.52c-4.49-3.47-4.95-8.31-4.95-11.53V5.12h13.26v20.35c0,1.38,0.2,3.52,1.63,4.95
			c1.27,1.28,3.11,1.48,4.49,1.48s3.21-0.2,4.49-1.48c1.53-1.53,1.63-3.88,1.63-4.95V5.12h13.26V26.74z"/>
		<path style="fill:#000000;" d="M582.45,27.66c-0.25,5.76-3.21,9.28-6.48,11.32c-4.28,2.7-9.89,2.86-13.51,2.86
			c-5.66,0-11.73-0.61-16.47-5.25c-4.18-4.13-5.05-9.43-5.05-13.26c0-4.59,0.92-9.64,5.1-13.77c5-4.95,11.27-5.35,16.11-5.35
			c4.39,0,10.5,0.46,14.64,3.42c2.04,1.48,5.2,4.64,5.51,10.4h-13.31c-0.1-1.58-0.87-2.6-1.73-3.21c-0.92-0.66-2.29-1.12-4.18-1.12
			c-2.04,0-4.03,0.41-5.61,2.14c-1.43,1.58-2.24,4.13-2.24,7.5c0,1.78,0.25,4.95,2.29,7.04c1.73,1.73,3.88,1.99,5.61,1.99
			c1.38,0,3.21-0.2,4.54-1.43c0.41-0.41,1.43-1.43,1.58-3.26H582.45z"/>
		<path style="fill:#000000;" d="M585,15.01V5.12h36.21v9.89h-11.47v25.8h-13.26v-25.8H585z"/>
		<path style="fill:#000000;" d="M640.33,5.12v35.7h-13.26V5.12H640.33z"/>
		<path style="fill:#000000;" d="M686.44,36.68c-3.62,3.11-9.33,5.1-16.42,5.1c-7.09,0-12.8-1.99-16.42-5.1
			c-2.4-2.04-5.86-6.27-5.86-13.72s3.47-11.68,5.86-13.72c3.62-3.11,9.33-5.1,16.42-5.1c7.09,0,12.8,1.99,16.42,5.1
			c2.4,2.04,5.86,6.27,5.86,13.72S688.83,34.64,686.44,36.68z M664.46,15.72c-1.58,1.58-2.45,4.23-2.45,7.24s0.87,5.66,2.45,7.24
			c1.22,1.17,3.26,2.09,5.56,2.09s4.33-0.92,5.56-2.09c1.58-1.58,2.45-4.23,2.45-7.24s-0.87-5.66-2.45-7.24
			c-1.22-1.17-3.26-2.09-5.56-2.09S665.68,14.55,664.46,15.72z"/>
		<path style="fill:#000000;" d="M712.14,21.33l0.51,4.13v15.35H699.7V5.12h12.19l13.72,19.53h0.51l-0.51-4.13V5.12h12.95v35.7
			h-12.19l-13.72-19.48H712.14z"/>
		<path style="fill:#000000;" d="M758.4,29.03v0.2c0,1.02,0.2,2.29,1.43,3.21c1.28,0.97,3.47,1.12,4.28,1.12
			c1.22,0,2.75-0.05,3.93-0.61c1.28-0.61,1.73-1.53,1.73-2.55c0-1.63-1.17-2.19-2.14-2.5c-0.46-0.15-1.48-0.46-4.23-0.92l-3.83-0.66
			c-6.42-1.12-8.92-2.14-10.45-3.21c-2.75-1.99-3.31-4.69-3.31-6.83c0-4.28,1.99-7.09,5.1-9.08c3.98-2.55,8.82-3.01,12.85-3.01
			c7.85,0,11.47,1.78,12.95,2.7c4.33,2.65,4.9,6.22,4.79,8.87h-12.6v-0.15c0-0.82-0.2-1.84-1.43-2.55
			c-0.46-0.26-1.53-0.71-3.88-0.71c-1.68,0-2.7,0.26-3.37,0.61c-0.97,0.51-1.53,1.38-1.53,2.14c0,1.33,1.12,1.84,1.79,2.04
			c0.46,0.15,1.43,0.41,5.2,1.02l4.13,0.66c4.39,0.71,7.5,1.68,9.64,3.31c2.65,2.04,3.52,4.64,3.52,7.7c0,3.16-0.87,5.76-3.06,7.9
			c-3.82,3.77-9.99,4.18-15.71,4.18c-8.41,0-12.14-1.73-13.97-3.01c-2.14-1.53-4.79-4.54-4.79-9.64v-0.25H758.4z"/>
	</g>
</g>
</svg>