<svg xmlns="http://www.w3.org/2000/svg" viewBox="0 0 133 99" role="img" aria-label="Nordisk Film" fill="currentColor">
  <!-- Polar bear mark -->
  <path d="M76.53 39.488l6.156-11.878c5.2-9.976-1.418-17.906-16.745-20.794l-3.396-2.087-14.38-3.035-1.03-1.128-1.726.297-.702-.654s-1.836-.368-4.61-.13c-2.75.237-4.123 1.04-4.123 1.04l-.358.456-5.837 1.818-.023.214 1.065.175-.181.95-.71.387.329 1.134c.094.267.353.442 1.056.603l6.947 1.392 16.817 9.43 5.548 18.129v.67l-1.76 2.264c-.97.267-1.918.585-2.845.948l2.173-3.456v-.442l-3.876-12.514-4.364-3.164 6.374 16.25-2.16 4.131C44.42 45.142 37.68 55.108 37.68 66.655c0 .29.006.578.013.866h.007C39.393 52.269 52.288 40.41 67.946 40.41c8.831 0 16.784 3.774 22.344 9.801l.007-.005c-3.353-4.86-8.15-8.638-13.768-10.716zM37.76 3.157l-1.976.274-.172-.343.576-.87 1.792.145-.22.794zm7.675-.64l-.085-.685 1.214-.272.482 1.042-1.611-.083zM71.03 36.536l-1.67 1.307c-.732-.071-1.471-.113-2.22-.127l.366-1.857-1.046-12.806 5.527 3.104-.957 10.378z"/>
  <!-- "NORDISK" text -->
  <path d="M8.393 82.733l-5.782-7.88h-.071l.126 7.88H0V70.527h2.487l5.798 7.863h.071l-.126-7.863h2.666v12.206h-2.506z"/>
  <path d="M20.145 82.876c-3.561 0-6.407-2.621-6.407-6.211s2.882-6.282 6.407-6.282c3.524 0 6.425 2.655 6.425 6.282s-2.864 6.211-6.425 6.211zm3.471-6.246c0-2.135-1.558-3.68-3.453-3.68s-3.453 1.544-3.453 3.68 1.54 3.661 3.453 3.661 3.453-1.525 3.453-3.66z"/>
  <path d="M36.6 82.733l-2.345-4.398h-2.022v4.398H29.42V70.527h5.424c2.721 0 4.527 1.238 4.527 3.841 0 1.742-1.037 2.89-2.398 3.482l2.827 4.883H36.6zm-1.737-6.678c.984 0 1.664-.7 1.664-1.652 0-.953-.645-1.526-1.682-1.526H32.23v3.178h2.632z"/>
  <path d="M42.305 82.733V70.527h5.19c3.616 0 6.425 2.513 6.425 6.14s-2.774 6.068-6.425 6.068h-5.19zm5.19-2.423c1.95 0 3.472-1.544 3.472-3.68s-1.521-3.68-3.472-3.68h-2.363v7.36h2.363z"/>
  <path d="M56.8 82.733V70.527h2.812v12.206H56.8z"/>
  <path d="M69.968 74.517c-.321-1.077-1.216-1.758-2.632-1.758-1.11 0-2.021.396-2.021 1.148 0 .826.877 1.167 2.81 1.402 2.972.34 4.617 1.256 4.617 3.553 0 2.602-2.256 4.02-5.172 4.02-2.685 0-4.959-1.328-5.156-4.181h2.703c.232.969 1.092 1.832 2.577 1.832 1.308 0 2.219-.52 2.219-1.346 0-1.095-1.074-1.298-3.221-1.567-2.506-.322-4.188-1.077-4.188-3.32 0-2.244 1.916-3.912 4.977-3.912s4.903 1.668 5.154 4.127h-2.666z"/>
  <path d="M82.39 82.733l-3.956-5.134h-.053v5.134h-2.827V70.527h2.827v4.899h.053l3.866-4.899h3.204l-4.78 5.69 5.067 6.517h-3.4z"/>
  <!-- "FILM" text -->
  <path d="M95.397 77.778v4.954h-2.827V70.527h9.02v2.423h-6.193v2.405h4.977v2.423h-4.977z"/>
  <path d="M104.07 82.733V70.527h2.811v12.206h-2.811z"/>
  <path d="M110.323 82.733V70.527h2.826v9.782h5.709v2.423h-8.538z"/>
  <path d="M130.207 82.733v-8.006h-.071l-2.882 3.59h-.411l-2.882-3.59h-.071v8.006h-2.792V70.527h2.648l3.292 4.237h.019l3.329-4.237h2.613v12.206h-2.792z"/>
  <!-- "OMEGA" text (bottom) -->
  <path d="M69.543 94.782c0-2.842 2.758-4.204 5.043-4.204s5.044 1.362 5.044 4.204-2.763 4.204-5.044 4.204-5.043-1.362-5.043-4.204zm1.76 0c0 1.997.865 3.666 3.283 3.666s3.286-1.669 3.286-3.666-.865-3.666-3.286-3.666-3.283 1.669-3.283 3.666z"/>
  <path d="M61.03 98.785l-3.258-6.439-1.026 5.866 1.303.265v.308h-3.456v-.308l1.388-.265 1.32-7.447h1.307l2.989 6.133 3.407-6.133h1.12l1.365 7.447 1.473.265v.308h-4.515v-.308l1.397-.265-.955-5.893-3.515 6.466h-.445z"/>
  <path d="M81.605 90.672h.96l6.493 6.144v-5.472l-1.482-.26v-.315h3.352v.315l-1.16.26v7.543h-.694l-6.76-6.34v5.668l1.522.265v.308h-3.555v-.308l1.322-.265v-7.543z"/>
  <path d="M38.078 98.302v-3.433h5.02v-.55h-5.02v-3.088h.225c1.49 0 4.835.453 4.835.453v-.918H35.07v.315l1.43.258v6.871l-1.43.265v.31h8.187v-1.01s-3.836.527-4.837.527h-.344z"/>
  <path d="M50.155 95.093v.313l1.544.322v2.531c-.489.108-1.076.186-1.99.186-2.271 0-3.449-1.427-3.449-3.585 0-2.874 1.611-3.73 3.509-3.73 1.294 0 2.595.474 3.267.865l.307-.957c-.995-.263-2.36-.46-3.72-.46-2.094 0-5.132 1.07-5.132 4.36 0 2.599 2.494 4.065 5.215 4.065 1.161 0 1.934-.099 3.522-.43v-3.16l1.246-.323v-.312h-4.323z"/>
  <path d="M99.779 90.77v.931s-2.102-.453-3.123-.453h-.27v6.966l1.48.262v.313h-4.522v-.313l1.475-.262V91.248h-.27c-1.022 0-3.126.453-3.126.453V90.77h8.357z"/>
</svg>
